<?xml version="1.0" encoding="utf-8"?>
<!-- Generator: Adobe Illustrator 27.5.0, SVG Export Plug-In . SVG Version: 6.00 Build 0)  -->
<svg version="1.1" xmlns="http://www.w3.org/2000/svg" xmlns:xlink="http://www.w3.org/1999/xlink" x="0px" y="0px"
	 viewBox="0 0 800 800" style="enable-background:new 0 0 800 800;" xml:space="preserve">
<g id="Layer_1">
	<g>
		<g>
			<text transform="matrix(1 0 0 1 216.8325 462.2134)"><tspan x="0" y="0" style="fill:#414042; font-family:'Exo-Bold'; font-size:61.0971px; letter-spacing:6;">AUTO </tspan><tspan x="192.881" y="0" style="fill:#C61D23; font-family:'Exo-BoldItalic'; font-size:61.0971px; letter-spacing:6;">FAST</tspan></text>
			<text transform="matrix(1 0 0 1 231.6216 495.2954)" style="fill:#4D4D4F; font-family:'Exo-Italic'; font-size:26.0681px;">THIS WILL BE YOUR TAGLINE</text>
		</g>
		<g>
			<g>
				<g>
					<linearGradient id="SVGID_1_" gradientUnits="userSpaceOnUse" x1="507.9365" y1="295.7056" x2="507.9365" y2="403.7285">
						<stop  offset="0" style="stop-color:#ED1C24"/>
						<stop  offset="0.1522" style="stop-color:#E41C23"/>
						<stop  offset="0.3653" style="stop-color:#D31A21"/>
						<stop  offset="0.6144" style="stop-color:#B9171C"/>
						<stop  offset="0.8886" style="stop-color:#970F12"/>
						<stop  offset="1" style="stop-color:#88090C"/>
					</linearGradient>
					<path style="fill:url(#SVGID_1_);" d="M507.936,382.059c-4.763,0-8.638-3.875-8.638-8.638c0-4.763,3.875-8.638,8.638-8.638
						c4.763,0,8.638,3.875,8.638,8.638C516.574,378.184,512.699,382.059,507.936,382.059z M507.936,365.904
						c-4.146,0-7.517,3.372-7.517,7.518c0,4.146,3.371,7.518,7.517,7.518c4.145,0,7.518-3.372,7.518-7.518
						C515.454,369.276,512.082,365.904,507.936,365.904z"/>
				</g>
				<g>
					
						<linearGradient id="SVGID_00000144312593780855125670000016356731978379695031_" gradientUnits="userSpaceOnUse" x1="507.8642" y1="334.1685" x2="507.8642" y2="388.882">
						<stop  offset="0" style="stop-color:#ED1C24"/>
						<stop  offset="0.1522" style="stop-color:#E41C23"/>
						<stop  offset="0.3653" style="stop-color:#D31A21"/>
						<stop  offset="0.6144" style="stop-color:#B9171C"/>
						<stop  offset="0.8886" style="stop-color:#970F12"/>
						<stop  offset="1" style="stop-color:#88090C"/>
					</linearGradient>
					<path style="fill:url(#SVGID_00000144312593780855125670000016356731978379695031_);" d="M507.864,375.352
						c-1.004,0-1.82-0.816-1.82-1.82s0.816-1.82,1.82-1.82s1.82,0.816,1.82,1.82S508.868,375.352,507.864,375.352z M507.864,372.27
						c-0.696,0-1.262,0.566-1.262,1.262c0,0.695,0.566,1.262,1.262,1.262c0.695,0,1.262-0.566,1.262-1.262
						C509.126,372.836,508.56,372.27,507.864,372.27z"/>
				</g>
				<g>
					
						<radialGradient id="SVGID_00000011723514379182997670000006028924173969726356_" cx="507.8438" cy="372.8872" r="9.4627" gradientUnits="userSpaceOnUse">
						<stop  offset="0" style="stop-color:#808285"/>
						<stop  offset="0.0471" style="stop-color:#7B7D80"/>
						<stop  offset="0.113" style="stop-color:#6E6F72"/>
						<stop  offset="0.19" style="stop-color:#555658"/>
						<stop  offset="0.2748" style="stop-color:#171718"/>
						<stop  offset="0.2863" style="stop-color:#000000"/>
						<stop  offset="0.5134" style="stop-color:#39383A"/>
						<stop  offset="0.9798" style="stop-color:#6B6C6F"/>
						<stop  offset="1" style="stop-color:#6D6E71"/>
					</radialGradient>
					<path style="fill:url(#SVGID_00000011723514379182997670000006028924173969726356_);" d="M504.031,379.61l0.541-4.822
						l-3.666-3.179l4.754-0.976l1.891-4.469l2.397,4.219l4.834,0.418l-3.272,3.582l1.098,4.727l-4.42-2.004L504.031,379.61z
						 M503.094,372.181l2.531,2.195l-0.373,3.331l2.871-1.73l3.051,1.385l-0.758-3.264l2.26-2.475l-3.338-0.289l-1.656-2.914
						l-1.307,3.087L503.094,372.181z"/>
				</g>
			</g>
			
				<linearGradient id="SVGID_00000049913659298306423110000011708621491326821255_" gradientUnits="userSpaceOnUse" x1="306.0297" y1="273.5184" x2="302.4574" y2="416.4101">
				<stop  offset="0" style="stop-color:#ED1C24"/>
				<stop  offset="0.1522" style="stop-color:#E41C23"/>
				<stop  offset="0.3653" style="stop-color:#D31A21"/>
				<stop  offset="0.6144" style="stop-color:#B9171C"/>
				<stop  offset="0.8886" style="stop-color:#970F12"/>
				<stop  offset="1" style="stop-color:#88090C"/>
			</linearGradient>
			<path style="fill:url(#SVGID_00000049913659298306423110000011708621491326821255_);" d="M280.311,373.001
				c0-15.181,12.311-27.487,27.496-27.487c9.81,0,18.412,5.138,23.279,12.865c-4.663-9.595-14.503-16.21-25.893-16.21
				c-15.889,0-28.77,12.876-28.77,28.761c0,13.68,9.556,25.12,22.356,28.034C288.031,395.23,280.311,385.02,280.311,373.001z"/>
			<path style="fill:#851013;" d="M248.346,333.538c0,0-11.055,3.813-12.58,17.917c-1.524,14.105,0-28.59,0-28.59
				S236.91,325.915,248.346,333.538z"/>
			
				<linearGradient id="SVGID_00000018212421597561422320000000489704770376992180_" gradientUnits="userSpaceOnUse" x1="256.834" y1="272.2881" x2="253.2616" y2="415.1804">
				<stop  offset="0" style="stop-color:#ED1C24"/>
				<stop  offset="0.1522" style="stop-color:#E41C23"/>
				<stop  offset="0.3653" style="stop-color:#D31A21"/>
				<stop  offset="0.6144" style="stop-color:#B9171C"/>
				<stop  offset="0.8886" style="stop-color:#970F12"/>
				<stop  offset="1" style="stop-color:#88090C"/>
			</linearGradient>
			<path style="fill:url(#SVGID_00000018212421597561422320000000489704770376992180_);" d="M240.824,356.992
				c0,0-6.629,32.388,33.694,30.688c0,0-43.076,12.146-40.323-30.688H240.824z"/>
			
				<linearGradient id="SVGID_00000117676734200037524570000001480886844592352414_" gradientUnits="userSpaceOnUse" x1="394.7286" y1="275.7353" x2="391.1563" y2="418.627">
				<stop  offset="0" style="stop-color:#ED1C24"/>
				<stop  offset="0.1522" style="stop-color:#E41C23"/>
				<stop  offset="0.3653" style="stop-color:#D31A21"/>
				<stop  offset="0.6144" style="stop-color:#B9171C"/>
				<stop  offset="0.8886" style="stop-color:#970F12"/>
				<stop  offset="1" style="stop-color:#88090C"/>
			</linearGradient>
			<path style="fill:url(#SVGID_00000117676734200037524570000001480886844592352414_);" d="M548.352,340.4
				c0,0-17.535-9.912-90.346-8.386c0,0-22.871-21.729-65.946-27.066c0,0-41.236-3.38-96.064,14.868c0,0-16.818,6.132-43.076,11.817
				c0,0-12.961-8.386-14.485-13.723c0,0,13.628,4.955,44.981-2.669c0,0,72.855-26.614,126.94-14.485c0,0,32.021,6.48,52.224,22.109
				C462.58,322.864,520.142,321.721,548.352,340.4z"/>
			
				<linearGradient id="SVGID_00000119832672748852809460000012991726315609750458_" gradientUnits="userSpaceOnUse" x1="547.8017" y1="279.5595" x2="544.2293" y2="422.4559">
				<stop  offset="0" style="stop-color:#F7941D"/>
				<stop  offset="0.3455" style="stop-color:#F57D28"/>
				<stop  offset="1" style="stop-color:#EF4136"/>
			</linearGradient>
			<path style="fill:url(#SVGID_00000119832672748852809460000012991726315609750458_);" d="M560.168,356.922
				c0,0-3.049-7.243-22.109-8.005c0,0-0.557-2.218-6.101-7.624C531.958,341.293,551.019,337.1,560.168,356.922z"/>
			
				<linearGradient id="SVGID_00000109002589631192550920000003415612348447191736_" gradientUnits="userSpaceOnUse" x1="416.3718" y1="276.2753" x2="412.7994" y2="419.1698">
				<stop  offset="0" style="stop-color:#ED1C24"/>
				<stop  offset="0.1522" style="stop-color:#E41C23"/>
				<stop  offset="0.3653" style="stop-color:#D31A21"/>
				<stop  offset="0.6144" style="stop-color:#B9171C"/>
				<stop  offset="0.8886" style="stop-color:#970F12"/>
				<stop  offset="1" style="stop-color:#88090C"/>
			</linearGradient>
			<path style="fill:url(#SVGID_00000109002589631192550920000003415612348447191736_);" d="M382.147,333.919h65.566
				c0,0-28.208-24.016-54.32-22.872c0,0,28.78,5.718,36.405,17.535L382.147,333.919z"/>
			
				<linearGradient id="SVGID_00000122694246246554897930000011777562782859195031_" gradientUnits="userSpaceOnUse" x1="345.6365" y1="274.5083" x2="342.0642" y2="417.3996">
				<stop  offset="0" style="stop-color:#ED1C24"/>
				<stop  offset="0.1522" style="stop-color:#E41C23"/>
				<stop  offset="0.3653" style="stop-color:#D31A21"/>
				<stop  offset="0.6144" style="stop-color:#B9171C"/>
				<stop  offset="0.8886" style="stop-color:#970F12"/>
				<stop  offset="1" style="stop-color:#88090C"/>
			</linearGradient>
			<path style="fill:url(#SVGID_00000122694246246554897930000011777562782859195031_);" d="M373.761,333.919v-19.822
				c0,0-37.357-1.524-61.373,8.767c0,0,18.298-14.104,64.423-13.723L373.761,333.919z"/>
			
				<linearGradient id="SVGID_00000074404420173882003760000009323725146439378356_" gradientUnits="userSpaceOnUse" x1="557.4059" y1="279.8017" x2="553.8336" y2="422.6954">
				<stop  offset="0" style="stop-color:#ED1C24"/>
				<stop  offset="0.1522" style="stop-color:#E41C23"/>
				<stop  offset="0.3653" style="stop-color:#D31A21"/>
				<stop  offset="0.6144" style="stop-color:#B9171C"/>
				<stop  offset="0.8886" style="stop-color:#970F12"/>
				<stop  offset="1" style="stop-color:#88090C"/>
			</linearGradient>
			<path style="fill:url(#SVGID_00000074404420173882003760000009323725146439378356_);" d="M560.168,360.622
				c0,0-21.303,20.328,5.762,28.648c0,0-17.534,0.066-22.49,0C543.44,389.27,542.633,362.528,560.168,360.622z"/>
			
				<linearGradient id="SVGID_00000129183248392625153750000001214732065793586867_" gradientUnits="userSpaceOnUse" x1="430.4713" y1="276.6295" x2="426.899" y2="419.5214">
				<stop  offset="0" style="stop-color:#ED1C24"/>
				<stop  offset="0.1522" style="stop-color:#E41C23"/>
				<stop  offset="0.3653" style="stop-color:#D31A21"/>
				<stop  offset="0.6144" style="stop-color:#B9171C"/>
				<stop  offset="0.8886" style="stop-color:#970F12"/>
				<stop  offset="1" style="stop-color:#88090C"/>
			</linearGradient>
			<path style="fill:url(#SVGID_00000129183248392625153750000001214732065793586867_);" d="M485.668,349.794L485.668,349.794
				c-51.844-22.971-92.679,20.396-159.429-9.395c0,0,39.228,58.564,137.306,27.235c0,0-42.973,29.808-116.532,2.932
				c0,0,78.086,42.587,135.64,18.248l0,0c3.996,5.02,9.636,8.676,16.108,10.149c-6.966-2.419-12.655-7.56-15.8-14.147
				c-8.656-18.129,4.545-39.302,24.826-39.302c9.809,0,18.412,5.138,23.278,12.865C522.598,340.957,499.782,336.772,485.668,349.794
				z"/>
			
				<radialGradient id="SVGID_00000017508925946643482980000013671612043786289303_" cx="507.9365" cy="373.4214" r="39.2248" gradientUnits="userSpaceOnUse">
				<stop  offset="0" style="stop-color:#4D4D4F"/>
				<stop  offset="0.2117" style="stop-color:#39383A"/>
				<stop  offset="0.507" style="stop-color:#000000"/>
				<stop  offset="0.6307" style="stop-color:#2A2A2B"/>
				<stop  offset="0.8459" style="stop-color:#474748"/>
				<stop  offset="1" style="stop-color:#4D4D4F"/>
			</radialGradient>
			<path style="opacity:0.5;fill:url(#SVGID_00000017508925946643482980000013671612043786289303_);" d="M507.936,349.399
				c-13.245,0-24.021,10.776-24.021,24.022c0,13.246,10.776,24.022,24.021,24.022c13.247,0,24.022-10.776,24.022-24.022
				C531.958,360.175,521.184,349.399,507.936,349.399z M507.936,389.862c-9.066,0-16.44-7.375-16.44-16.44
				c0-9.066,7.374-16.441,16.44-16.441c9.066,0,16.442,7.375,16.442,16.441C524.379,382.487,517.002,389.862,507.936,389.862z
				 M519.809,357.518c-2.982-2.4-6.24-3.816-8.793-4.324c9.053,0.572,16.798,7.84,17.91,17.313l-1.849,0.061
				C526.497,364.159,522.81,359.934,519.809,357.518z"/>
			
				<radialGradient id="SVGID_00000145060222166460260150000012558327948456899221_" cx="507.9365" cy="373.4214" r="35.8588" gradientUnits="userSpaceOnUse">
				<stop  offset="0" style="stop-color:#808285"/>
				<stop  offset="0.0811" style="stop-color:#7B7D80"/>
				<stop  offset="0.1945" style="stop-color:#6E6F72"/>
				<stop  offset="0.3271" style="stop-color:#555658"/>
				<stop  offset="0.4732" style="stop-color:#171718"/>
				<stop  offset="0.493" style="stop-color:#000000"/>
				<stop  offset="0.6543" style="stop-color:#39383A"/>
				<stop  offset="0.9857" style="stop-color:#6B6C6F"/>
				<stop  offset="1" style="stop-color:#6D6E71"/>
			</radialGradient>
			<path style="fill:url(#SVGID_00000145060222166460260150000012558327948456899221_);" d="M507.936,349.399
				c-13.245,0-24.021,10.776-24.021,24.022c0,13.246,10.776,24.022,24.021,24.022c13.247,0,24.022-10.776,24.022-24.022
				C531.958,360.175,521.184,349.399,507.936,349.399z M507.936,389.862c-9.066,0-16.44-7.375-16.44-16.44
				c0-9.066,7.374-16.441,16.44-16.441c9.066,0,16.442,7.375,16.442,16.441C524.379,382.487,517.002,389.862,507.936,389.862z
				 M519.809,357.518c-2.982-2.4-6.24-3.816-8.793-4.324c9.053,0.572,16.798,7.84,17.91,17.313l-1.849,0.061
				C526.497,364.159,522.81,359.934,519.809,357.518z"/>
			
				<radialGradient id="SVGID_00000096043243330891210090000005075651070559360959_" cx="307.9575" cy="373.4214" r="39.2252" gradientUnits="userSpaceOnUse">
				<stop  offset="0" style="stop-color:#4D4D4F"/>
				<stop  offset="0.2117" style="stop-color:#39383A"/>
				<stop  offset="0.507" style="stop-color:#000000"/>
				<stop  offset="0.6307" style="stop-color:#2A2A2B"/>
				<stop  offset="0.8459" style="stop-color:#474748"/>
				<stop  offset="1" style="stop-color:#4D4D4F"/>
			</radialGradient>
			<path style="opacity:0.5;fill:url(#SVGID_00000096043243330891210090000005075651070559360959_);" d="M307.957,349.399
				c-13.245,0-24.022,10.776-24.022,24.022c0,13.246,10.776,24.022,24.022,24.022c13.248,0,24.022-10.776,24.022-24.022
				C331.979,360.175,321.205,349.399,307.957,349.399z M307.957,389.862c-9.065,0-16.44-7.375-16.44-16.44
				c0-9.066,7.375-16.441,16.44-16.441c9.066,0,16.442,7.375,16.442,16.441C324.399,382.487,317.023,389.862,307.957,389.862z
				 M319.829,357.518c-2.982-2.4-6.24-3.816-8.793-4.324c9.053,0.572,16.799,7.84,17.911,17.313l-1.85,0.061
				C326.519,364.159,322.831,359.934,319.829,357.518z"/>
			
				<radialGradient id="SVGID_00000182497876287534406620000000174510761141000070_" cx="307.9575" cy="373.4214" r="35.8592" gradientUnits="userSpaceOnUse">
				<stop  offset="0" style="stop-color:#808285"/>
				<stop  offset="0.0811" style="stop-color:#7B7D80"/>
				<stop  offset="0.1945" style="stop-color:#6E6F72"/>
				<stop  offset="0.3271" style="stop-color:#555658"/>
				<stop  offset="0.4732" style="stop-color:#171718"/>
				<stop  offset="0.493" style="stop-color:#000000"/>
				<stop  offset="0.6543" style="stop-color:#39383A"/>
				<stop  offset="0.9857" style="stop-color:#6B6C6F"/>
				<stop  offset="1" style="stop-color:#6D6E71"/>
			</radialGradient>
			<path style="fill:url(#SVGID_00000182497876287534406620000000174510761141000070_);" d="M307.957,349.399
				c-13.245,0-24.022,10.776-24.022,24.022c0,13.246,10.776,24.022,24.022,24.022c13.248,0,24.022-10.776,24.022-24.022
				C331.979,360.175,321.205,349.399,307.957,349.399z M307.957,389.862c-9.065,0-16.44-7.375-16.44-16.44
				c0-9.066,7.375-16.441,16.44-16.441c9.066,0,16.442,7.375,16.442,16.441C324.399,382.487,317.023,389.862,307.957,389.862z
				 M319.829,357.518c-2.982-2.4-6.24-3.816-8.793-4.324c9.053,0.572,16.799,7.84,17.911,17.313l-1.85,0.061
				C326.519,364.159,322.831,359.934,319.829,357.518z"/>
			<g>
				<g>
					
						<linearGradient id="SVGID_00000147212617564047627390000014127002380087762564_" gradientUnits="userSpaceOnUse" x1="308.0503" y1="295.5758" x2="308.0503" y2="403.5924">
						<stop  offset="0" style="stop-color:#ED1C24"/>
						<stop  offset="0.1522" style="stop-color:#E41C23"/>
						<stop  offset="0.3653" style="stop-color:#D31A21"/>
						<stop  offset="0.6144" style="stop-color:#B9171C"/>
						<stop  offset="0.8886" style="stop-color:#970F12"/>
						<stop  offset="1" style="stop-color:#88090C"/>
					</linearGradient>
					<path style="fill:url(#SVGID_00000147212617564047627390000014127002380087762564_);" d="M308.05,381.924
						c-4.762,0-8.637-3.875-8.637-8.637c0-4.763,3.875-8.638,8.637-8.638c4.763,0,8.638,3.875,8.638,8.638
						C316.688,378.049,312.813,381.924,308.05,381.924z M308.05,365.77c-4.145,0-7.517,3.372-7.517,7.518
						c0,4.145,3.372,7.518,7.517,7.518c4.145,0,7.518-3.373,7.518-7.518C315.567,369.142,312.195,365.77,308.05,365.77z"/>
				</g>
				<g>
					
						<linearGradient id="SVGID_00000011000254795943011910000011569443083436350874_" gradientUnits="userSpaceOnUse" x1="307.9775" y1="334.0348" x2="307.9775" y2="388.7469">
						<stop  offset="0" style="stop-color:#ED1C24"/>
						<stop  offset="0.1522" style="stop-color:#E41C23"/>
						<stop  offset="0.3653" style="stop-color:#D31A21"/>
						<stop  offset="0.6144" style="stop-color:#B9171C"/>
						<stop  offset="0.8886" style="stop-color:#970F12"/>
						<stop  offset="1" style="stop-color:#88090C"/>
					</linearGradient>
					<path style="fill:url(#SVGID_00000011000254795943011910000011569443083436350874_);" d="M307.977,375.217
						c-1.004,0-1.82-0.816-1.82-1.82c0-1.003,0.816-1.82,1.82-1.82c1.004,0,1.82,0.817,1.82,1.82
						C309.798,374.401,308.981,375.217,307.977,375.217z M307.977,372.135c-0.696,0-1.262,0.566-1.262,1.262
						c0,0.696,0.565,1.262,1.262,1.262c0.695,0,1.262-0.565,1.262-1.262C309.239,372.702,308.673,372.135,307.977,372.135z"/>
				</g>
				<g>
					
						<radialGradient id="SVGID_00000070076379995050243080000003981018016477787791_" cx="307.9575" cy="372.753" r="9.462" gradientUnits="userSpaceOnUse">
						<stop  offset="0" style="stop-color:#808285"/>
						<stop  offset="0.0471" style="stop-color:#7B7D80"/>
						<stop  offset="0.113" style="stop-color:#6E6F72"/>
						<stop  offset="0.19" style="stop-color:#555658"/>
						<stop  offset="0.2748" style="stop-color:#171718"/>
						<stop  offset="0.2863" style="stop-color:#000000"/>
						<stop  offset="0.5134" style="stop-color:#39383A"/>
						<stop  offset="0.9798" style="stop-color:#6B6C6F"/>
						<stop  offset="1" style="stop-color:#6D6E71"/>
					</radialGradient>
					<path style="fill:url(#SVGID_00000070076379995050243080000003981018016477787791_);" d="M304.145,379.475l0.54-4.822
						l-3.665-3.178l4.753-0.977l1.891-4.468l2.396,4.219l4.834,0.417l-3.272,3.583l1.098,4.726l-4.419-2.004L304.145,379.475z
						 M303.207,372.047l2.531,2.195l-0.373,3.33l2.871-1.73l3.052,1.384l-0.758-3.264l2.26-2.475l-3.339-0.288l-1.656-2.914
						l-1.306,3.087L303.207,372.047z"/>
				</g>
			</g>
		</g>
	</g>
</g>
<g id="Layer_2" style="display:none;">
</g>
</svg>
